<svg xmlns="http://www.w3.org/2000/svg" viewBox="0 0 1200 750" fill="none">
  <rect width="1200" height="750" fill="#F9FAFB"/>
  <rect width="240" height="750" fill="#111827"/>
  <rect x="24" y="28" width="120" height="28" rx="4" fill="#374151"/>
  <rect x="16" y="176" width="208" height="36" rx="6" fill="#374151"/>
  <rect x="280" y="40" width="180" height="32" rx="4" fill="#111827"/>
  <rect x="280" y="96" width="200" height="100" rx="8" fill="#fff" stroke="#E5E7EB"/>
  <rect x="300" y="116" width="100" height="12" rx="4" fill="#9CA3AF"/>
  <rect x="300" y="140" width="140" height="28" rx="4" fill="#111827"/>
  <rect x="500" y="96" width="200" height="100" rx="8" fill="#fff" stroke="#E5E7EB"/>
  <rect x="520" y="116" width="100" height="12" rx="4" fill="#9CA3AF"/>
  <rect x="520" y="140" width="120" height="28" rx="4" fill="#FF6B6B"/>
  <rect x="720" y="96" width="200" height="100" rx="8" fill="#fff" stroke="#E5E7EB"/>
  <rect x="740" y="116" width="100" height="12" rx="4" fill="#9CA3AF"/>
  <rect x="740" y="140" width="100" height="28" rx="4" fill="#111827"/>
  <rect x="280" y="220" width="850" height="380" rx="8" fill="#fff" stroke="#E5E7EB"/>
  <rect x="300" y="250" width="160" height="16" rx="4" fill="#111827"/>
  <rect x="320" y="400" width="60" height="160" rx="4" fill="#FFD700"/>
  <rect x="400" y="360" width="60" height="200" rx="4" fill="#FF6B6B"/>
  <rect x="480" y="320" width="60" height="240" rx="4" fill="#FFD700"/>
  <rect x="560" y="380" width="60" height="180" rx="4" fill="#FF6B6B"/>
  <rect x="640" y="300" width="60" height="260" rx="4" fill="#FFD700"/>
  <rect x="720" y="340" width="60" height="220" rx="4" fill="#FF6B6B"/>
  <rect x="800" y="280" width="60" height="280" rx="4" fill="#FFD700"/>
  <rect x="880" y="350" width="60" height="210" rx="4" fill="#FF6B6B"/>
  <rect x="960" y="310" width="60" height="250" rx="4" fill="#FFD700"/>
</svg>
