<svg xmlns="http://www.w3.org/2000/svg" viewBox="0 0 1200 750" fill="none">
  <rect width="1200" height="750" fill="#F9FAFB"/>
  <rect width="240" height="750" fill="#111827"/>
  <rect x="24" y="28" width="120" height="28" rx="4" fill="#374151"/>
  <rect x="16" y="80" width="208" height="36" rx="6" fill="#1F2937"/>
  <rect x="16" y="128" width="208" height="36" rx="6" fill="#374151"/>
  <rect x="16" y="176" width="208" height="36" rx="6" fill="#1F2937"/>
  <rect x="16" y="224" width="208" height="36" rx="6" fill="#1F2937"/>
  <rect x="280" y="40" width="200" height="32" rx="4" fill="#111827"/>
  <rect x="280" y="88" width="400" height="20" rx="4" fill="#9CA3AF"/>
  <rect x="280" y="140" width="270" height="120" rx="8" fill="#fff" stroke="#E5E7EB"/>
  <rect x="300" y="160" width="40" height="40" rx="8" fill="#3B82F6"/>
  <rect x="360" y="168" width="120" height="12" rx="4" fill="#D1D5DB"/>
  <rect x="360" y="188" width="80" height="24" rx="4" fill="#111827"/>
  <rect x="570" y="140" width="270" height="120" rx="8" fill="#fff" stroke="#E5E7EB"/>
  <rect x="590" y="160" width="40" height="40" rx="8" fill="#FF6B6B"/>
  <rect x="650" y="168" width="120" height="12" rx="4" fill="#D1D5DB"/>
  <rect x="650" y="188" width="80" height="24" rx="4" fill="#111827"/>
  <rect x="860" y="140" width="270" height="120" rx="8" fill="#fff" stroke="#E5E7EB"/>
  <rect x="880" y="160" width="40" height="40" rx="8" fill="#FFD700"/>
  <rect x="940" y="168" width="120" height="12" rx="4" fill="#D1D5DB"/>
  <rect x="940" y="188" width="80" height="24" rx="4" fill="#111827"/>
  <rect x="280" y="290" width="850" height="380" rx="8" fill="#fff" stroke="#E5E7EB"/>
  <rect x="300" y="320" width="160" height="16" rx="4" fill="#111827"/>
  <rect x="300" y="360" width="810" height="8" rx="4" fill="#E5E7EB"/>
  <rect x="300" y="390" width="600" height="8" rx="4" fill="#E5E7EB"/>
  <rect x="300" y="420" width="700" height="8" rx="4" fill="#E5E7EB"/>
  <rect x="300" y="450" width="500" height="8" rx="4" fill="#E5E7EB"/>
  <rect x="300" y="500" width="810" height="140" rx="6" fill="#F3F4F6"/>
</svg>
